<svg width="318" height="963" viewBox="0 0 318 963" version="1.1" xmlns="http://www.w3.org/2000/svg" xmlns:xlink="http://www.w3.org/1999/xlink">
<title>Mask Group</title>
<desc>Created using Figma</desc>
<g id="Canvas" transform="matrix(3 0 0 3 -13842 -3408)">
<g id="Mask Group">
<mask id="mask0_alpha" mask-type="alpha">
<g id="Rectangle 4">
<use xlink:href="#path0_fill" transform="matrix(0.00938206 0.999956 -0.999956 0.00938206 4725.43 1092.55)" fill="#C4C4C4"/>
</g>
</mask>
<g id="Group 2" opacity="0.3" mask="url(#mask0_alpha)">
<g id="Vector">
<use xlink:href="#path1_stroke" transform="matrix(0.00938206 0.999956 -0.999956 0.00938206 4713.56 1139.67)" fill="#2F80ED"/>
</g>
<g id="Vector">
<use xlink:href="#path1_stroke" transform="matrix(0.00938206 0.999956 -0.999956 0.00938206 4698.94 1139.81)" fill="#2F80ED"/>
</g>
<g id="Vector">
<use xlink:href="#path1_stroke" transform="matrix(0.00938206 0.999956 -0.999956 0.00938206 4683.67 1139.95)" fill="#2F80ED"/>
</g>
<g id="Vector">
<use xlink:href="#path1_stroke" transform="matrix(0.00938206 0.999956 -0.999956 0.00938206 4669.05 1140.09)" fill="#2F80ED"/>
</g>
<g id="Vector">
<use xlink:href="#path2_stroke" transform="matrix(0.00938206 0.999956 -0.999956 0.00938206 4653.78 1140.23)" fill="#2F80ED"/>
</g>
<g id="Vector">
<use xlink:href="#path1_stroke" transform="matrix(0.00938206 0.999956 -0.999956 0.00938206 4639.31 1140.37)" fill="#2F80ED"/>
</g>
<g id="Vector">
<use xlink:href="#path1_stroke" transform="matrix(0.00938206 0.999956 -0.999956 0.00938206 4624.68 1140.5)" fill="#2F80ED"/>
</g>
<g id="Vector">
<use xlink:href="#path1_stroke" transform="matrix(0.00938206 0.999956 -0.999956 0.00938206 4609.42 1140.65)" fill="#2F80ED"/>
</g>
</g>
</g>
</g>
<defs>
<path id="path0_fill" d="M 0 0L 362.583 0L 362.583 111.556L 0 111.556L 0 0Z"/>
<path id="path1_stroke" d="M 1.06472 9.2012C -0.484278 8.61318 -2.21668 9.39219 -2.80471 10.9412C -3.39273 12.4902 -2.61371 14.2226 -1.06472 14.8106L 1.06472 9.2012ZM 52.9176 21.4593L 53.2942 18.4831L 52.5941 18.4768L 52.9176 21.4593ZM 158.753 0.18914L 158.753 3.18914L 158.959 3.18202L 158.753 0.18914ZM 224.122 12.0059L 222.878 14.736L 224.122 12.0059ZM 483.678 14.7581C 485.198 14.0986 485.896 12.3319 485.236 10.8119C 484.577 9.29192 482.81 8.59432 481.29 9.25376L 483.678 14.7581ZM -1.06472 14.8106C 24.2377 24.4159 45.4647 25.2853 53.2411 24.4418L 52.5941 18.4768C 45.8442 19.2089 25.5671 18.5028 1.06472 9.2012L -1.06472 14.8106ZM 52.541 24.4356C 59.3691 25.2996 78.548 24.3918 103.787 14.8106L 101.658 9.2012C 77.092 18.5268 58.9174 19.1946 53.2942 18.4831L 52.541 24.4356ZM 103.787 14.8106C 128.336 5.49131 150.802 3.18914 158.753 3.18914L 158.753 -2.81086C 150.103 -2.81086 126.913 -0.386319 101.658 9.2012L 103.787 14.8106ZM 158.959 3.18202C 170.061 2.41579 198.573 3.66409 222.878 14.736L 225.365 9.27584C 199.865 -2.34047 170.272 -3.61308 158.546 -2.80374L 158.959 3.18202ZM 222.878 14.736C 240.292 22.619 262.886 24.457 273.926 24.4593L 273.926 18.4593C 263.124 18.4617 241.796 16.8105 225.365 9.27584L 222.878 14.736ZM 273.926 24.4593C 287.486 24.4593 302.483 24.4101 327.909 14.8106L 325.779 9.2012C 301.4 18.5086 287.486 18.4593 273.926 18.4593L 273.926 24.4593ZM 327.909 14.8106C 352.559 5.44024 364.582 3.17617 379.762 3.18914L 379.762 -2.81086C 364.025 -2.79789 350.934 -0.335249 325.779 9.2012L 327.909 14.8106ZM 379.762 3.18914C 396.059 3.17184 415.016 7.31889 434.727 14.8106L 436.857 9.2012C 416.725 1.56747 396.703 -2.79356 379.762 -2.81086L 379.762 3.18914ZM 434.727 14.8106C 455.546 22.7136 475.878 18.1421 483.678 14.7581L 481.29 9.25376C 474.564 12.172 455.882 16.4237 436.857 9.2012L 434.727 14.8106Z"/>
<path id="path2_stroke" d="M 1.06472 9.2012C -0.484278 8.61318 -2.21668 9.39219 -2.80471 10.9412C -3.39273 12.4902 -2.61371 14.2226 -1.06472 14.8106L 1.06472 9.2012ZM 52.9176 21.4593L 53.2942 18.4831L 52.5941 18.4768L 52.9176 21.4593ZM 158.753 0.18914L 158.753 3.18914L 158.959 3.18202L 158.753 0.18914ZM 224.122 12.0059L 225.365 9.27584L 224.122 12.0059ZM 483.678 14.7581C 485.198 14.0986 485.896 12.3319 485.236 10.8119C 484.577 9.29192 482.81 8.59432 481.29 9.25376L 483.678 14.7581ZM -1.06472 14.8106C 24.2377 24.4159 45.4647 25.2853 53.2411 24.4418L 52.5941 18.4768C 45.8442 19.2089 25.5671 18.5028 1.06472 9.2012L -1.06472 14.8106ZM 52.541 24.4356C 59.369 25.2996 78.548 24.3918 103.787 14.8106L 101.658 9.2012C 77.092 18.5268 58.9174 19.1946 53.2942 18.4831L 52.541 24.4356ZM 103.787 14.8106C 128.336 5.49131 150.802 3.18914 158.753 3.18914L 158.753 -2.81086C 150.103 -2.81086 126.913 -0.386319 101.658 9.2012L 103.787 14.8106ZM 158.959 3.18202C 170.061 2.41579 198.573 3.66409 222.878 14.736L 225.365 9.27584C 199.865 -2.34047 170.272 -3.61308 158.546 -2.80374L 158.959 3.18202ZM 222.878 14.736C 240.292 22.619 262.886 24.457 273.926 24.4593L 273.926 18.4593C 263.124 18.4617 241.796 16.8105 225.365 9.27584L 222.878 14.736ZM 273.926 24.4593C 287.486 24.4593 302.483 24.4101 327.909 14.8106L 325.779 9.2012C 301.4 18.5086 287.486 18.4593 273.926 18.4593L 273.926 24.4593ZM 327.909 14.8106C 352.559 5.44024 364.582 3.17617 379.762 3.18914L 379.762 -2.81086C 364.025 -2.79789 350.934 -0.335249 325.779 9.2012L 327.909 14.8106ZM 379.762 3.18914C 396.059 3.17184 415.016 7.31889 434.727 14.8106L 436.857 9.2012C 416.725 1.56747 396.703 -2.79356 379.762 -2.81086L 379.762 3.18914ZM 434.727 14.8106C 455.546 22.7136 475.878 18.1421 483.678 14.7581L 481.29 9.25376C 474.564 12.172 455.882 16.4237 436.857 9.2012L 434.727 14.8106Z"/>
</defs>
</svg>
