<svg width="306" height="942" viewBox="0 0 306 942" version="1.1" xmlns="http://www.w3.org/2000/svg" xmlns:xlink="http://www.w3.org/1999/xlink">
<title>Mask Group</title>
<desc>Created using Figma</desc>
<g id="Canvas" transform="matrix(3 0 0 3 -17268 -3426)">
<g id="Mask Group">
<mask id="mask0_alpha" mask-type="alpha">
<g id="Rectangle 4">
<use xlink:href="#path0_fill" transform="matrix(0.00121023 -0.999999 0.999999 0.00121023 5746.95 1498.81)" fill="#C4C4C4"/>
</g>
</mask>
<g id="Group 2" opacity="0.3" mask="url(#mask0_alpha)">
<g id="Vector">
<use xlink:href="#path1_stroke" transform="matrix(0.00121023 -0.999999 0.999999 0.00121023 5759.32 1452.57)" fill="#2F80ED"/>
</g>
<g id="Vector">
<use xlink:href="#path1_stroke" transform="matrix(0.00121023 -0.999999 0.999999 0.00121023 5773.95 1452.59)" fill="#2F80ED"/>
</g>
<g id="Vector">
<use xlink:href="#path1_stroke" transform="matrix(0.00121023 -0.999999 0.999999 0.00121023 5789.21 1452.61)" fill="#2F80ED"/>
</g>
<g id="Vector">
<use xlink:href="#path1_stroke" transform="matrix(0.00121023 -0.999999 0.999999 0.00121023 5803.84 1452.63)" fill="#2F80ED"/>
</g>
<g id="Vector">
<use xlink:href="#path2_stroke" transform="matrix(0.00121023 -0.999999 0.999999 0.00121023 5819.1 1452.65)" fill="#2F80ED"/>
</g>
<g id="Vector">
<use xlink:href="#path1_stroke" transform="matrix(0.00121023 -0.999999 0.999999 0.00121023 5833.58 1452.66)" fill="#2F80ED"/>
</g>
<g id="Vector">
<use xlink:href="#path1_stroke" transform="matrix(0.00121023 -0.999999 0.999999 0.00121023 5848.21 1452.68)" fill="#2F80ED"/>
</g>
</g>
</g>
</g>
<defs>
<path id="path0_fill" d="M 0 0L 356.812 0L 356.812 111.556L 0 111.556L 0 0Z"/>
<path id="path1_stroke" d="M 1.07972 9.20694C -0.466103 8.61063 -2.20265 9.38036 -2.79896 10.9262C -3.39528 12.472 -2.62555 14.2086 -1.07972 14.8049L 1.07972 9.20694ZM 52.0754 21.4593L 52.458 18.4838L 51.7468 18.4774L 52.0754 21.4593ZM 101.088 12.0059L 102.167 14.8049L 101.088 12.0059ZM 156.226 0.18914L 156.226 3.18914L 156.436 3.18179L 156.226 0.18914ZM 220.555 12.0059L 219.294 14.7284L 220.555 12.0059ZM 476.016 14.751C 477.532 14.0826 478.219 12.3118 477.55 10.7957C 476.882 9.27964 475.111 8.59246 473.595 9.26084L 476.016 14.751ZM -1.07972 14.8049C 23.8306 24.4142 44.7346 25.2866 52.4041 24.4413L 51.7468 18.4774C 45.121 19.2076 25.1815 18.5044 1.07972 9.20694L -1.07972 14.8049ZM 51.6928 24.4348C 58.4318 25.3014 77.3212 24.3894 102.167 14.8049L 100.008 9.20694C 75.8418 18.5292 57.9721 19.1929 52.458 18.4838L 51.6928 24.4348ZM 102.167 14.8049C 126.316 5.4892 148.413 3.18914 156.226 3.18914L 156.226 -2.81086C 147.702 -2.81086 124.871 -0.384215 100.008 9.20694L 102.167 14.8049ZM 156.436 3.18179C 167.35 2.41632 195.392 3.66374 219.294 14.7284L 221.815 9.28345C 196.705 -2.34012 167.566 -3.61361 156.016 -2.80351L 156.436 3.18179ZM 219.294 14.7284C 236.445 22.6162 258.699 24.4569 269.567 24.4593L 269.567 18.4593C 258.94 18.4618 237.97 16.8133 221.815 9.28345L 219.294 14.7284ZM 269.567 24.4593C 282.91 24.4593 297.685 24.4086 322.722 14.8049L 320.563 9.20694C 296.587 18.51 282.91 18.4593 269.567 18.4593L 269.567 24.4593ZM 322.722 14.8049C 347.018 5.43253 358.995 3.18914 373.718 3.18914L 373.718 -2.81086C 358.015 -2.81086 345.279 -0.327546 320.563 9.20694L 322.722 14.8049ZM 373.718 3.18914C 389.746 3.17129 408.384 7.31513 427.777 14.8049L 429.936 9.20694C 410.119 1.57122 390.399 -2.79301 373.718 -2.81086L 373.718 3.18914ZM 427.777 14.8049C 448.29 22.7182 468.326 18.1412 476.016 14.751L 473.595 9.26084C 466.99 12.1729 448.632 16.4191 429.936 9.20694L 427.777 14.8049Z"/>
<path id="path2_stroke" d="M 1.07972 9.20695C -0.466102 8.61063 -2.20265 9.38036 -2.79896 10.9262C -3.39528 12.472 -2.62555 14.2086 -1.07972 14.8049L 1.07972 9.20695ZM 52.0754 21.4593L 52.458 18.4838L 51.7468 18.4774L 52.0754 21.4593ZM 156.226 0.18914L 156.226 3.18914L 156.436 3.18179L 156.226 0.18914ZM 220.555 12.0059L 221.815 9.28345L 220.555 12.0059ZM 476.016 14.751C 477.532 14.0826 478.219 12.3118 477.55 10.7957C 476.882 9.27964 475.111 8.59246 473.595 9.26084L 476.016 14.751ZM -1.07972 14.8049C 23.8306 24.4142 44.7346 25.2866 52.4041 24.4413L 51.7468 18.4774C 45.121 19.2076 25.1815 18.5044 1.07972 9.20695L -1.07972 14.8049ZM 51.6928 24.4348C 58.4318 25.3014 77.3212 24.3894 102.167 14.8049L 100.008 9.20695C 75.8418 18.5292 57.9721 19.1929 52.458 18.4838L 51.6928 24.4348ZM 102.167 14.8049C 126.316 5.4892 148.413 3.18914 156.226 3.18914L 156.226 -2.81086C 147.702 -2.81086 124.871 -0.384215 100.008 9.20695L 102.167 14.8049ZM 156.436 3.18179C 167.35 2.41632 195.392 3.66374 219.294 14.7284L 221.815 9.28345C 196.705 -2.34012 167.567 -3.61361 156.016 -2.80351L 156.436 3.18179ZM 219.294 14.7284C 236.445 22.6162 258.699 24.4569 269.567 24.4593L 269.567 18.4593C 258.94 18.4618 237.97 16.8133 221.815 9.28345L 219.294 14.7284ZM 269.567 24.4593C 282.91 24.4593 297.685 24.4086 322.722 14.8049L 320.563 9.20695C 296.587 18.51 282.91 18.4593 269.567 18.4593L 269.567 24.4593ZM 322.722 14.8049C 347.018 5.43253 358.995 3.18914 373.718 3.18914L 373.718 -2.81086C 358.015 -2.81086 345.279 -0.327546 320.563 9.20695L 322.722 14.8049ZM 373.718 3.18914C 389.746 3.17129 408.384 7.31513 427.777 14.8049L 429.936 9.20695C 410.119 1.57122 390.399 -2.79301 373.718 -2.81086L 373.718 3.18914ZM 427.777 14.8049C 448.29 22.7182 468.326 18.1412 476.016 14.751L 473.595 9.26084C 466.99 12.1729 448.632 16.4191 429.936 9.20695L 427.777 14.8049Z"/>
</defs>
</svg>
