<svg width="683" height="1458" viewBox="0 0 683 1458" version="1.1" xmlns="http://www.w3.org/2000/svg" xmlns:xlink="http://www.w3.org/1999/xlink">
<title>Mask Group</title>
<desc>Created using Figma</desc>
<g id="Canvas" transform="translate(-10663 -1670)">
<g id="Mask Group">
<mask id="mask0_alpha" mask-type="alpha">
<g id="Rectangle 10">
<use xlink:href="#path0_fill" transform="translate(10663 1670)" fill="#C4C4C4"/>
</g>
</mask>
<g id="Mask Group" mask="url(#mask0_alpha)">
<mask id="mask1_alpha" mask-type="alpha">
<g id="Rectangle 5">
<use xlink:href="#path1_fill" transform="matrix(0.419956 -0.907544 0.907544 0.419956 10582 3077.77)" fill="#C4C4C4"/>
</g>
</mask>
<g id="Group 2" opacity="0.75" mask="url(#mask1_alpha)">
<g id="Vector">
<use xlink:href="#path2_stroke" transform="matrix(0.419956 -0.907544 0.907544 0.419956 10565.5 3225.57)" fill="#F0F6FA"/>
</g>
<g id="Vector">
<use xlink:href="#path2_stroke" transform="matrix(0.419956 -0.907544 0.907544 0.419956 10605.7 3244.21)" fill="#F0F6FA"/>
</g>
<g id="Vector">
<use xlink:href="#path2_stroke" transform="matrix(0.419956 -0.907544 0.907544 0.419956 10647.8 3263.65)" fill="#F0F6FA"/>
</g>
<g id="Vector">
<use xlink:href="#path2_stroke" transform="matrix(0.419956 -0.907544 0.907544 0.419956 10688 3282.28)" fill="#F0F6FA"/>
</g>
<g id="Vector">
<use xlink:href="#path3_stroke" transform="matrix(0.419956 -0.907544 0.907544 0.419956 10730 3301.72)" fill="#F0F6FA"/>
</g>
<g id="Vector">
<use xlink:href="#path2_stroke" transform="matrix(0.419956 -0.907544 0.907544 0.419956 10769.9 3320.16)" fill="#F0F6FA"/>
</g>
<g id="Vector">
<use xlink:href="#path2_stroke" transform="matrix(0.419956 -0.907544 0.907544 0.419956 10810.2 3338.79)" fill="#F0F6FA"/>
</g>
<g id="Vector">
<use xlink:href="#path2_stroke" transform="matrix(0.419956 -0.907544 0.907544 0.419956 10852.2 3358.24)" fill="#F0F6FA"/>
</g>
<g id="Vector">
<use xlink:href="#path2_stroke" transform="matrix(0.419956 -0.907544 0.907544 0.419956 10892.4 3376.87)" fill="#F0F6FA"/>
</g>
<g id="Vector">
<use xlink:href="#path3_stroke" transform="matrix(0.419956 -0.907544 0.907544 0.419956 10934.4 3396.31)" fill="#F0F6FA"/>
</g>
<g id="Vector">
<use xlink:href="#path2_stroke" transform="matrix(0.419956 -0.907544 0.907544 0.419956 10974.3 3414.75)" fill="#F0F6FA"/>
</g>
<g id="Vector">
<use xlink:href="#path2_stroke" transform="matrix(0.419956 -0.907544 0.907544 0.419956 11014.6 3433.38)" fill="#F0F6FA"/>
</g>
<g id="Vector">
<use xlink:href="#path2_stroke" transform="matrix(0.419956 -0.907544 0.907544 0.419956 11056.6 3452.82)" fill="#F0F6FA"/>
</g>
<g id="Vector">
<use xlink:href="#path2_stroke" transform="matrix(0.419956 -0.907544 0.907544 0.419956 11096.8 3471.45)" fill="#F0F6FA"/>
</g>
<g id="Vector">
<use xlink:href="#path3_stroke" transform="matrix(0.419956 -0.907544 0.907544 0.419956 11138.9 3490.9)" fill="#F0F6FA"/>
</g>
<g id="Vector">
<use xlink:href="#path2_stroke" transform="matrix(0.419956 -0.907544 0.907544 0.419956 11178.7 3509.34)" fill="#F0F6FA"/>
</g>
<g id="Vector">
<use xlink:href="#path2_stroke" transform="matrix(0.419956 -0.907544 0.907544 0.419956 11219 3527.97)" fill="#F0F6FA"/>
</g>
<g id="Vector">
<use xlink:href="#path2_stroke" transform="matrix(0.419956 -0.907544 0.907544 0.419956 11261 3547.41)" fill="#F0F6FA"/>
</g>
<g id="Vector">
<use xlink:href="#path2_stroke" transform="matrix(0.419956 -0.907544 0.907544 0.419956 11301.2 3566.04)" fill="#F0F6FA"/>
</g>
<g id="Vector">
<use xlink:href="#path3_stroke" transform="matrix(0.419956 -0.907544 0.907544 0.419956 11343.3 3585.48)" fill="#F0F6FA"/>
</g>
</g>
</g>
</g>
</g>
<defs>
<path id="path0_fill" d="M 0 0L 683 0L 683 1458L 0 1458L 0 0Z"/>
<path id="path1_fill" d="M 0 0L 1643.74 13.6534L 1643.74 752.452L 0 752.452L 0 0Z"/>
<path id="path2_stroke" d="M 1.5079 31.648C -1.12496 30.8152 -3.93442 32.2744 -4.76721 34.9073C -5.59999 37.5401 -4.14075 40.3496 -1.5079 41.1824L 1.5079 31.648ZM 192.631 65.0883L 193.156 60.1159L 192.181 60.1086L 192.631 65.0883ZM 577.894 0.573682L 577.894 5.57368L 578.181 5.56543L 577.894 0.573682ZM 815.85 36.4152L 814.076 41.0897L 815.85 36.4152ZM 1758.04 41.1174C 1760.64 40.1786 1761.98 37.3123 1761.05 34.7153C 1760.11 32.1184 1757.24 30.7742 1754.64 31.713L 1758.04 41.1174ZM -1.5079 41.1824C 89.7267 70.0404 165.934 72.5215 193.081 70.068L 192.181 60.1086C 166.45 62.4341 91.5734 60.1362 1.5079 31.648L -1.5079 41.1824ZM 192.107 70.0608C 215.603 72.5381 284.293 70.0125 375.439 41.1824L 372.423 31.648C 282.27 60.1642 214.985 62.4175 193.156 60.1159L 192.107 70.0608ZM 375.439 41.1824C 465.573 12.6724 548.158 5.57368 577.894 5.57368L 577.894 -4.42632C 547.196 -4.42632 463.589 2.81157 372.423 31.648L 375.439 41.1824ZM 578.181 5.56543C 619.495 3.18397 724.209 6.90822 814.076 41.0897L 817.624 31.7406C 726.191 -2.89354 619.388 -6.81547 577.607 -4.41807L 578.181 5.56543ZM 814.076 41.0897C 876.387 64.6824 957.229 70.0856 997.15 70.0883L 997.15 60.0883C 957.56 60.0911 878.515 54.9114 817.624 31.7406L 814.076 41.0897ZM 997.15 70.0883C 1046.51 70.0883 1099.89 70.0298 1191.29 41.1824L 1188.27 31.648C 1098.37 60.1469 1046.51 60.0883 997.15 60.0883L 997.15 70.0883ZM 1191.29 41.1824C 1281.58 12.6092 1326.53 5.55857 1382.41 5.57368L 1382.41 -4.42632C 1325.75 -4.4112 1279.29 2.87473 1188.27 31.648L 1191.29 41.1824ZM 1382.41 5.57368C 1442.46 5.55347 1512.65 18.3296 1584.87 41.1824L 1587.88 31.648C 1515.06 8.62366 1443.36 -4.4061 1382.41 -4.42632L 1382.41 5.57368ZM 1584.87 41.1824C 1658.66 64.523 1730.82 50.9599 1758.04 41.1174L 1754.64 31.713C 1728.99 40.9859 1659.13 54.1844 1587.88 31.648L 1584.87 41.1824Z"/>
<path id="path3_stroke" d="M 1.5079 31.648C -1.12496 30.8152 -3.93442 32.2744 -4.76721 34.9073C -5.59999 37.5401 -4.14075 40.3496 -1.5079 41.1824L 1.5079 31.648ZM 192.631 65.0883L 193.156 60.1159L 192.181 60.1086L 192.631 65.0883ZM 577.894 0.573682L 577.894 5.57368L 578.181 5.56543L 577.894 0.573682ZM 815.85 36.4152L 817.624 31.7406L 815.85 36.4152ZM 1758.04 41.1174C 1760.64 40.1786 1761.98 37.3123 1761.05 34.7154C 1760.11 32.1184 1757.24 30.7742 1754.64 31.713L 1758.04 41.1174ZM -1.5079 41.1824C 89.7266 70.0404 165.934 72.5215 193.081 70.068L 192.181 60.1086C 166.45 62.4341 91.5734 60.1362 1.5079 31.648L -1.5079 41.1824ZM 192.107 70.0608C 215.603 72.5381 284.293 70.0125 375.439 41.1824L 372.423 31.648C 282.27 60.1642 214.985 62.4175 193.156 60.1159L 192.107 70.0608ZM 375.439 41.1824C 465.573 12.6724 548.158 5.57368 577.894 5.57368L 577.894 -4.42632C 547.196 -4.42632 463.589 2.81156 372.423 31.648L 375.439 41.1824ZM 578.181 5.56543C 619.495 3.18397 724.209 6.90822 814.076 41.0898L 817.624 31.7406C 726.191 -2.89354 619.388 -6.81547 577.607 -4.41807L 578.181 5.56543ZM 814.076 41.0898C 876.387 64.6824 957.229 70.0856 997.15 70.0883L 997.15 60.0883C 957.56 60.0911 878.515 54.9114 817.624 31.7406L 814.076 41.0898ZM 997.15 70.0883C 1046.51 70.0883 1099.89 70.0298 1191.29 41.1824L 1188.27 31.648C 1098.37 60.1469 1046.51 60.0883 997.15 60.0883L 997.15 70.0883ZM 1191.29 41.1824C 1281.58 12.6092 1326.53 5.55857 1382.41 5.57368L 1382.41 -4.42632C 1325.75 -4.4112 1279.29 2.87473 1188.27 31.648L 1191.29 41.1824ZM 1382.41 5.57368C 1442.46 5.55347 1512.65 18.3296 1584.87 41.1824L 1587.88 31.648C 1515.06 8.62367 1443.36 -4.4061 1382.41 -4.42632L 1382.41 5.57368ZM 1584.87 41.1824C 1658.66 64.523 1730.82 50.9599 1758.04 41.1174L 1754.64 31.713C 1728.99 40.9859 1659.13 54.1844 1587.88 31.648L 1584.87 41.1824Z"/>
</defs>
</svg>
