<svg width="95" height="73" viewBox="0 0 95 73" version="1.1" xmlns="http://www.w3.org/2000/svg" xmlns:xlink="http://www.w3.org/1999/xlink">
<title>Mask Group</title>
<desc>Created using Figma</desc>
<g id="Canvas" transform="translate(-4504 -1752)">
<g id="Mask Group">
<mask id="mask0_alpha" mask-type="alpha">
<g id="Rectangle 6">
<use xlink:href="#path0_fill" transform="translate(4504 1752)" fill="#C4C4C4"/>
</g>
</mask>
<g id="Group 2" opacity="0.3" mask="url(#mask0_alpha)">
<g id="Vector">
<use xlink:href="#path1_stroke" transform="translate(4379.19 1732.48)" fill="#FFFFFF"/>
</g>
<g id="Vector">
<use xlink:href="#path1_stroke" transform="translate(4379.19 1746.12)" fill="#FFFFFF"/>
</g>
<g id="Vector">
<use xlink:href="#path2_stroke" transform="translate(4379.19 1760.35)" fill="#FFFFFF"/>
</g>
<g id="Vector">
<use xlink:href="#path1_stroke" transform="translate(4379.19 1773.98)" fill="#FFFFFF"/>
</g>
<g id="Vector">
<use xlink:href="#path3_stroke" transform="translate(4379.19 1788.21)" fill="#FFFFFF"/>
</g>
<g id="Vector">
<use xlink:href="#path1_stroke" transform="translate(4379.19 1801.71)" fill="#FFFFFF"/>
</g>
<g id="Vector">
<use xlink:href="#path1_stroke" transform="translate(4379.19 1815.34)" fill="#FFFFFF"/>
</g>
</g>
</g>
</g>
<defs>
<path id="path0_fill" d="M 0 0L 95 0L 95 73L 0 73L 0 0Z"/>
<path id="path1_stroke" d="M 1.34432 8.51078C -0.136871 7.76833 -1.93949 8.3672 -2.68194 9.8484C -3.42439 11.3296 -2.82552 13.1322 -1.34432 13.8747L 1.34432 8.51078ZM 37.3623 20.0058L 37.8567 17.0468L 36.937 17.0361L 37.3623 20.0058ZM 112.087 0.176329L 112.087 3.17633L 112.359 3.16395L 112.087 0.176329ZM 158.24 11.1927L 156.694 13.7635L 158.24 11.1927ZM 307.689 11.1927L 306.345 13.8747L 307.689 11.1927ZM 342.147 13.7958C 343.585 12.9723 344.083 11.1392 343.259 9.7015C 342.436 8.26383 340.603 7.76602 339.165 8.58959L 342.147 13.7958ZM -1.34432 13.8747C 16.706 22.9224 31.9724 23.8083 37.7876 22.9755L 36.937 17.0361C 32.4959 17.6722 18.4585 17.0893 1.34432 8.51078L -1.34432 13.8747ZM 36.8679 22.9648C 42.0655 23.8332 55.9034 22.881 73.8711 13.8747L 71.1825 8.51078C 53.9857 17.1307 41.4502 17.6473 37.8567 17.0468L 36.8679 22.9648ZM 73.8711 13.8747C 91.039 5.26924 106.696 3.17633 112.087 3.17633L 112.087 -2.82367C 105.756 -2.82367 89.179 -0.51002 71.1825 8.51078L 73.8711 13.8747ZM 112.359 3.16395C 119.981 2.46928 139.808 3.6063 156.694 13.7635L 159.787 8.62194C 141.508 -2.37234 120.309 -3.58547 111.815 -2.81129L 112.359 3.16395ZM 156.694 13.7635C 169.32 21.3579 185.463 23.0058 193.405 23.0058L 193.405 17.0058C 185.924 17.0058 171.057 15.4009 159.787 8.62194L 156.694 13.7635ZM 193.405 23.0058C 203.222 23.0058 213.95 22.978 232.111 13.8747L 229.423 8.51078C 212.419 17.0337 202.734 17.0058 193.405 17.0058L 193.405 23.0058ZM 232.111 13.8747C 249.463 5.17731 257.853 3.17633 268.129 3.17633L 268.129 -2.82367C 256.577 -2.82367 247.236 -0.41809 229.423 8.51078L 232.111 13.8747ZM 268.129 3.17633C 279.241 3.17633 292.53 6.94999 306.345 13.8747L 309.034 8.51078C 294.717 1.33447 280.486 -2.82367 268.129 -2.82367L 268.129 3.17633ZM 306.345 13.8747C 321.539 21.4907 336.396 17.0904 342.147 13.7958L 339.165 8.58959C 334.66 11.1704 321.971 14.9957 309.034 8.51078L 306.345 13.8747Z"/>
<path id="path2_stroke" d="M 1.34432 8.51078C -0.136871 7.76833 -1.93949 8.3672 -2.68194 9.8484C -3.42439 11.3296 -2.82552 13.1322 -1.34432 13.8747L 1.34432 8.51078ZM 37.3623 20.0058L 37.8567 17.0468L 36.937 17.0361L 37.3623 20.0058ZM 112.087 0.176329L 112.087 3.17633L 112.359 3.16395L 112.087 0.176329ZM 158.24 11.1927L 156.694 13.7635L 158.24 11.1927ZM 342.147 13.7958C 343.585 12.9723 344.083 11.1392 343.259 9.7015C 342.436 8.26383 340.603 7.76602 339.165 8.58959L 342.147 13.7958ZM -1.34432 13.8747C 16.706 22.9224 31.9724 23.8083 37.7876 22.9755L 36.937 17.0361C 32.4959 17.6722 18.4585 17.0893 1.34432 8.51078L -1.34432 13.8747ZM 36.8679 22.9648C 42.0655 23.8332 55.9034 22.881 73.8711 13.8747L 71.1825 8.51078C 53.9857 17.1307 41.4502 17.6473 37.8567 17.0468L 36.8679 22.9648ZM 73.8711 13.8747C 91.039 5.26923 106.696 3.17633 112.087 3.17633L 112.087 -2.82367C 105.756 -2.82367 89.179 -0.51002 71.1825 8.51078L 73.8711 13.8747ZM 112.359 3.16395C 119.981 2.46928 139.808 3.6063 156.694 13.7635L 159.787 8.62194C 141.508 -2.37234 120.309 -3.58547 111.815 -2.81129L 112.359 3.16395ZM 156.694 13.7635C 169.32 21.3579 185.463 23.0058 193.405 23.0058L 193.405 17.0058C 185.924 17.0058 171.057 15.4009 159.787 8.62194L 156.694 13.7635ZM 193.405 23.0058C 203.222 23.0058 213.95 22.978 232.111 13.8747L 229.423 8.51078C 212.419 17.0337 202.734 17.0058 193.405 17.0058L 193.405 23.0058ZM 232.111 13.8747C 249.463 5.1773 257.853 3.17633 268.129 3.17633L 268.129 -2.82367C 256.577 -2.82367 247.236 -0.41809 229.423 8.51078L 232.111 13.8747ZM 268.129 3.17633C 279.241 3.17633 292.53 6.94999 306.345 13.8747L 309.034 8.51078C 294.717 1.33447 280.486 -2.82367 268.129 -2.82367L 268.129 3.17633ZM 306.345 13.8747C 321.539 21.4907 336.396 17.0904 342.147 13.7958L 339.165 8.58959C 334.66 11.1704 321.971 14.9957 309.034 8.51078L 306.345 13.8747Z"/>
<path id="path3_stroke" d="M 1.34432 8.51078C -0.136871 7.76833 -1.93949 8.3672 -2.68194 9.8484C -3.42439 11.3296 -2.82552 13.1322 -1.34432 13.8747L 1.34432 8.51078ZM 37.3623 20.0058L 37.8567 17.0469L 36.937 17.0361L 37.3623 20.0058ZM 112.087 0.176329L 112.087 3.17633L 112.359 3.16395L 112.087 0.176329ZM 158.24 11.1927L 159.787 8.62194L 158.24 11.1927ZM 307.689 11.1927L 309.034 8.51078L 307.689 11.1927ZM 342.147 13.7958C 343.585 12.9723 344.083 11.1392 343.259 9.7015C 342.436 8.26383 340.603 7.76602 339.165 8.58959L 342.147 13.7958ZM -1.34432 13.8747C 16.706 22.9224 31.9724 23.8084 37.7876 22.9755L 36.937 17.0361C 32.4959 17.6722 18.4585 17.0893 1.34432 8.51078L -1.34432 13.8747ZM 36.8679 22.9648C 42.0655 23.8332 55.9034 22.881 73.8711 13.8747L 71.1825 8.51078C 53.9857 17.1307 41.4502 17.6473 37.8567 17.0469L 36.8679 22.9648ZM 73.8711 13.8747C 91.039 5.26923 106.696 3.17633 112.087 3.17633L 112.087 -2.82367C 105.756 -2.82367 89.1791 -0.51002 71.1825 8.51078L 73.8711 13.8747ZM 112.359 3.16395C 119.981 2.46928 139.808 3.6063 156.694 13.7635L 159.787 8.62194C 141.508 -2.37234 120.309 -3.58547 111.815 -2.81129L 112.359 3.16395ZM 156.694 13.7635C 169.32 21.3579 185.463 23.0058 193.405 23.0058L 193.405 17.0058C 185.924 17.0058 171.057 15.4009 159.787 8.62194L 156.694 13.7635ZM 193.405 23.0058C 203.222 23.0058 213.95 22.978 232.111 13.8747L 229.423 8.51078C 212.419 17.0337 202.734 17.0058 193.405 17.0058L 193.405 23.0058ZM 232.111 13.8747C 249.463 5.1773 257.853 3.17633 268.129 3.17633L 268.129 -2.82367C 256.577 -2.82367 247.236 -0.41809 229.423 8.51078L 232.111 13.8747ZM 268.129 3.17633C 279.241 3.17633 292.53 6.94999 306.345 13.8747L 309.034 8.51078C 294.717 1.33447 280.486 -2.82367 268.129 -2.82367L 268.129 3.17633ZM 306.345 13.8747C 321.539 21.4907 336.396 17.0904 342.147 13.7958L 339.165 8.58959C 334.66 11.1704 321.971 14.9957 309.034 8.51078L 306.345 13.8747Z"/>
</defs>
</svg>
